<mxfile host="app.diagrams.net" agent="Mozilla/5.0 (Macintosh; Intel Mac OS X 10_15_7) AppleWebKit/605.1.15 (KHTML, like Gecko) Version/17.4.1 Safari/605.1.15" version="26.0.5">
  <diagram id="C5RBs43oDa-KdzZeNtuy" name="Page-1">
    <mxGraphModel dx="2926" dy="2032" grid="1" gridSize="10" guides="1" tooltips="1" connect="1" arrows="1" fold="1" page="1" pageScale="1" pageWidth="827" pageHeight="1169" math="0" shadow="0">
      <root>
        <mxCell id="WIyWlLk6GJQsqaUBKTNV-0" />
        <mxCell id="WIyWlLk6GJQsqaUBKTNV-1" parent="WIyWlLk6GJQsqaUBKTNV-0" />
        <mxCell id="wzgeaGv9EAP81gYeaEBi-45" value="" style="rounded=0;whiteSpace=wrap;html=1;fillColor=none;" parent="WIyWlLk6GJQsqaUBKTNV-1" vertex="1">
          <mxGeometry x="-1160" y="-520" width="835" height="390" as="geometry" />
        </mxCell>
        <mxCell id="wzgeaGv9EAP81gYeaEBi-91" value="" style="rounded=0;whiteSpace=wrap;html=1;fillColor=none;strokeColor=#000000;" parent="WIyWlLk6GJQsqaUBKTNV-1" vertex="1">
          <mxGeometry x="-1160" y="-1055" width="830" height="485" as="geometry" />
        </mxCell>
        <mxCell id="wzgeaGv9EAP81gYeaEBi-51" value="" style="rounded=0;whiteSpace=wrap;html=1;fillColor=none;" parent="WIyWlLk6GJQsqaUBKTNV-1" vertex="1">
          <mxGeometry x="80" y="-1003" width="340" height="203" as="geometry" />
        </mxCell>
        <mxCell id="8cI2QEPQYE4IjMkozQ3j-2" style="edgeStyle=orthogonalEdgeStyle;rounded=0;orthogonalLoop=1;jettySize=auto;html=1;entryX=1;entryY=0.5;entryDx=0;entryDy=0;" edge="1" parent="WIyWlLk6GJQsqaUBKTNV-1" source="8cI2QEPQYE4IjMkozQ3j-7">
          <mxGeometry relative="1" as="geometry">
            <mxPoint x="-632.4666666666665" y="-240" as="sourcePoint" />
            <mxPoint x="-665" y="-379.0000000000002" as="targetPoint" />
          </mxGeometry>
        </mxCell>
        <mxCell id="wzgeaGv9EAP81gYeaEBi-0" value="Obstacle" style="swimlane;fontStyle=1;align=center;verticalAlign=top;childLayout=stackLayout;horizontal=1;startSize=26;horizontalStack=0;resizeParent=1;resizeParentMax=0;resizeLast=0;collapsible=1;marginBottom=0;whiteSpace=wrap;html=1;fillColor=#FFFF99;" parent="WIyWlLk6GJQsqaUBKTNV-1" vertex="1">
          <mxGeometry x="-825" y="-444" width="240" height="60" as="geometry" />
        </mxCell>
        <mxCell id="wzgeaGv9EAP81gYeaEBi-2" value="" style="line;strokeWidth=1;fillColor=none;align=left;verticalAlign=middle;spacingTop=-1;spacingLeft=3;spacingRight=3;rotatable=0;labelPosition=right;points=[];portConstraint=eastwest;strokeColor=inherit;" parent="wzgeaGv9EAP81gYeaEBi-0" vertex="1">
          <mxGeometry y="26" width="240" height="8" as="geometry" />
        </mxCell>
        <mxCell id="wzgeaGv9EAP81gYeaEBi-3" value="+OnCollisionEnter2D(Collision2D collision)" style="text;strokeColor=none;fillColor=none;align=left;verticalAlign=top;spacingLeft=4;spacingRight=4;overflow=hidden;rotatable=0;points=[[0,0.5],[1,0.5]];portConstraint=eastwest;whiteSpace=wrap;html=1;" parent="wzgeaGv9EAP81gYeaEBi-0" vertex="1">
          <mxGeometry y="34" width="240" height="26" as="geometry" />
        </mxCell>
        <mxCell id="Nn8wf7m07-L5-uIEtKWc-1" value="ObstacleFactory" style="swimlane;fontStyle=1;align=center;verticalAlign=top;childLayout=stackLayout;horizontal=1;startSize=26;horizontalStack=0;resizeParent=1;resizeParentMax=0;resizeLast=0;collapsible=1;marginBottom=0;whiteSpace=wrap;html=1;fillColor=#FFFF99;" parent="WIyWlLk6GJQsqaUBKTNV-1" vertex="1">
          <mxGeometry x="-1060" y="-500" width="160" height="60" as="geometry" />
        </mxCell>
        <mxCell id="Nn8wf7m07-L5-uIEtKWc-3" value="" style="line;strokeWidth=1;fillColor=none;align=left;verticalAlign=middle;spacingTop=-1;spacingLeft=3;spacingRight=3;rotatable=0;labelPosition=right;points=[];portConstraint=eastwest;strokeColor=inherit;" parent="Nn8wf7m07-L5-uIEtKWc-1" vertex="1">
          <mxGeometry y="26" width="160" height="8" as="geometry" />
        </mxCell>
        <mxCell id="Nn8wf7m07-L5-uIEtKWc-4" value="+BuildObstacle(): Obstacle" style="text;strokeColor=none;fillColor=none;align=left;verticalAlign=top;spacingLeft=4;spacingRight=4;overflow=hidden;rotatable=0;points=[[0,0.5],[1,0.5]];portConstraint=eastwest;whiteSpace=wrap;html=1;" parent="Nn8wf7m07-L5-uIEtKWc-1" vertex="1">
          <mxGeometry y="34" width="160" height="26" as="geometry" />
        </mxCell>
        <mxCell id="wzgeaGv9EAP81gYeaEBi-23" value="PlayerControler" style="swimlane;fontStyle=1;align=center;verticalAlign=top;childLayout=stackLayout;horizontal=1;startSize=26;horizontalStack=0;resizeParent=1;resizeParentMax=0;resizeLast=0;collapsible=1;marginBottom=0;whiteSpace=wrap;html=1;fillColor=#99FF99;strokeColor=#9673a6;" parent="WIyWlLk6GJQsqaUBKTNV-1" vertex="1">
          <mxGeometry x="170" y="-983" width="160" height="130" as="geometry" />
        </mxCell>
        <mxCell id="wzgeaGv9EAP81gYeaEBi-24" value="- rb: Rigidbody2D&lt;div&gt;+ moveSpeed: int&lt;/div&gt;&lt;div&gt;+ jumpStrength: int&lt;/div&gt;" style="text;strokeColor=none;fillColor=none;align=left;verticalAlign=top;spacingLeft=4;spacingRight=4;overflow=hidden;rotatable=0;points=[[0,0.5],[1,0.5]];portConstraint=eastwest;whiteSpace=wrap;html=1;" parent="wzgeaGv9EAP81gYeaEBi-23" vertex="1">
          <mxGeometry y="26" width="160" height="54" as="geometry" />
        </mxCell>
        <mxCell id="wzgeaGv9EAP81gYeaEBi-25" value="" style="line;strokeWidth=1;fillColor=none;align=left;verticalAlign=middle;spacingTop=-1;spacingLeft=3;spacingRight=3;rotatable=0;labelPosition=right;points=[];portConstraint=eastwest;strokeColor=inherit;" parent="wzgeaGv9EAP81gYeaEBi-23" vertex="1">
          <mxGeometry y="80" width="160" height="8" as="geometry" />
        </mxCell>
        <mxCell id="wzgeaGv9EAP81gYeaEBi-26" value="+ SetDirection()&lt;div&gt;+&amp;nbsp;FixedUpdate()&lt;/div&gt;" style="text;strokeColor=none;fillColor=none;align=left;verticalAlign=top;spacingLeft=4;spacingRight=4;overflow=hidden;rotatable=0;points=[[0,0.5],[1,0.5]];portConstraint=eastwest;whiteSpace=wrap;html=1;" parent="wzgeaGv9EAP81gYeaEBi-23" vertex="1">
          <mxGeometry y="88" width="160" height="42" as="geometry" />
        </mxCell>
        <mxCell id="8cI2QEPQYE4IjMkozQ3j-6" style="edgeStyle=orthogonalEdgeStyle;rounded=0;orthogonalLoop=1;jettySize=auto;html=1;" edge="1" parent="WIyWlLk6GJQsqaUBKTNV-1" source="wzgeaGv9EAP81gYeaEBi-33" target="wzgeaGv9EAP81gYeaEBi-23">
          <mxGeometry relative="1" as="geometry" />
        </mxCell>
        <mxCell id="wzgeaGv9EAP81gYeaEBi-33" value="Events" style="swimlane;fontStyle=1;align=center;verticalAlign=top;childLayout=stackLayout;horizontal=1;startSize=26;horizontalStack=0;resizeParent=1;resizeParentMax=0;resizeLast=0;collapsible=1;marginBottom=0;whiteSpace=wrap;html=1;fillColor=#FFCC99;strokeColor=#0e8088;" parent="WIyWlLk6GJQsqaUBKTNV-1" vertex="1">
          <mxGeometry x="-520" y="-961" width="160" height="68" as="geometry" />
        </mxCell>
        <mxCell id="wzgeaGv9EAP81gYeaEBi-34" value="+ grounded: bool&lt;div&gt;+ climbing: bool&lt;/div&gt;" style="text;strokeColor=none;fillColor=none;align=left;verticalAlign=top;spacingLeft=4;spacingRight=4;overflow=hidden;rotatable=0;points=[[0,0.5],[1,0.5]];portConstraint=eastwest;whiteSpace=wrap;html=1;" parent="wzgeaGv9EAP81gYeaEBi-33" vertex="1">
          <mxGeometry y="26" width="160" height="34" as="geometry" />
        </mxCell>
        <mxCell id="wzgeaGv9EAP81gYeaEBi-35" value="" style="line;strokeWidth=1;fillColor=none;align=left;verticalAlign=middle;spacingTop=-1;spacingLeft=3;spacingRight=3;rotatable=0;labelPosition=right;points=[];portConstraint=eastwest;strokeColor=inherit;" parent="wzgeaGv9EAP81gYeaEBi-33" vertex="1">
          <mxGeometry y="60" width="160" height="8" as="geometry" />
        </mxCell>
        <mxCell id="wzgeaGv9EAP81gYeaEBi-43" value="Agent Layer" style="html=1;whiteSpace=wrap;fillColor=#99FF99;strokeColor=#9673a6;" parent="WIyWlLk6GJQsqaUBKTNV-1" vertex="1">
          <mxGeometry x="160" y="-823" width="180" height="40" as="geometry" />
        </mxCell>
        <mxCell id="wzgeaGv9EAP81gYeaEBi-47" value="Scene Layer" style="html=1;whiteSpace=wrap;fillColor=#FFFF99;" parent="WIyWlLk6GJQsqaUBKTNV-1" vertex="1">
          <mxGeometry x="-850" y="-152" width="180" height="40" as="geometry" />
        </mxCell>
        <mxCell id="wzgeaGv9EAP81gYeaEBi-87" style="edgeStyle=orthogonalEdgeStyle;rounded=0;orthogonalLoop=1;jettySize=auto;html=1;exitX=0.5;exitY=0;exitDx=0;exitDy=0;entryX=1;entryY=0.5;entryDx=0;entryDy=0;endArrow=block;endFill=0;" parent="WIyWlLk6GJQsqaUBKTNV-1" source="wzgeaGv9EAP81gYeaEBi-56" target="wzgeaGv9EAP81gYeaEBi-83" edge="1">
          <mxGeometry relative="1" as="geometry" />
        </mxCell>
        <mxCell id="wzgeaGv9EAP81gYeaEBi-56" value="DataManager" style="swimlane;fontStyle=1;align=center;verticalAlign=top;childLayout=stackLayout;horizontal=1;startSize=26;horizontalStack=0;resizeParent=1;resizeParentMax=0;resizeLast=0;collapsible=1;marginBottom=0;whiteSpace=wrap;html=1;fillColor=#FFCC99;strokeColor=#0e8088;" parent="WIyWlLk6GJQsqaUBKTNV-1" vertex="1">
          <mxGeometry x="-840" y="-823" width="160" height="34" as="geometry" />
        </mxCell>
        <mxCell id="wzgeaGv9EAP81gYeaEBi-58" value="" style="line;strokeWidth=1;fillColor=none;align=left;verticalAlign=middle;spacingTop=-1;spacingLeft=3;spacingRight=3;rotatable=0;labelPosition=right;points=[];portConstraint=eastwest;strokeColor=inherit;" parent="wzgeaGv9EAP81gYeaEBi-56" vertex="1">
          <mxGeometry y="26" width="160" height="8" as="geometry" />
        </mxCell>
        <mxCell id="wzgeaGv9EAP81gYeaEBi-70" value="PreloadManager" style="swimlane;fontStyle=1;align=center;verticalAlign=top;childLayout=stackLayout;horizontal=1;startSize=26;horizontalStack=0;resizeParent=1;resizeParentMax=0;resizeLast=0;collapsible=1;marginBottom=0;whiteSpace=wrap;html=1;fillColor=#FFCC99;strokeColor=#0e8088;" parent="WIyWlLk6GJQsqaUBKTNV-1" vertex="1">
          <mxGeometry x="-1110" y="-823" width="160" height="104" as="geometry" />
        </mxCell>
        <mxCell id="wzgeaGv9EAP81gYeaEBi-71" value="+&amp;nbsp;startButton:&amp;nbsp;Button&lt;div&gt;+&amp;nbsp;planetSlider: Slider&lt;/div&gt;" style="text;strokeColor=none;fillColor=none;align=left;verticalAlign=top;spacingLeft=4;spacingRight=4;overflow=hidden;rotatable=0;points=[[0,0.5],[1,0.5]];portConstraint=eastwest;whiteSpace=wrap;html=1;" parent="wzgeaGv9EAP81gYeaEBi-70" vertex="1">
          <mxGeometry y="26" width="160" height="44" as="geometry" />
        </mxCell>
        <mxCell id="wzgeaGv9EAP81gYeaEBi-72" value="" style="line;strokeWidth=1;fillColor=none;align=left;verticalAlign=middle;spacingTop=-1;spacingLeft=3;spacingRight=3;rotatable=0;labelPosition=right;points=[];portConstraint=eastwest;strokeColor=inherit;" parent="wzgeaGv9EAP81gYeaEBi-70" vertex="1">
          <mxGeometry y="70" width="160" height="8" as="geometry" />
        </mxCell>
        <mxCell id="wzgeaGv9EAP81gYeaEBi-73" value="+&amp;nbsp;StartGame()" style="text;strokeColor=none;fillColor=none;align=left;verticalAlign=top;spacingLeft=4;spacingRight=4;overflow=hidden;rotatable=0;points=[[0,0.5],[1,0.5]];portConstraint=eastwest;whiteSpace=wrap;html=1;" parent="wzgeaGv9EAP81gYeaEBi-70" vertex="1">
          <mxGeometry y="78" width="160" height="26" as="geometry" />
        </mxCell>
        <mxCell id="wzgeaGv9EAP81gYeaEBi-74" value="&lt;div&gt;Justificación de Patrones de Diseño:&lt;/div&gt;&lt;div&gt;Para la creación de obstáculos, hemos elegido el patrón de diseño Factory. Este enfoque permite la incorporación de nuevos obstáculos sin modificar el código existente, ya que delega la creación de obstáculos a una clase factoría base (ObstacleFactory) y a subclases que devuelven el tipo específico de obstáculo solicitado.&lt;/div&gt;&lt;div&gt;&lt;br&gt;&lt;/div&gt;&lt;div&gt;Además, hemos implementado el patrón de diseño Singleton para asegurar que ciertas clases tengan una única instancia global. Esto nos permite un control centralizado del juego, facilitando la interacción y el acceso a métodos y datos de la instancia única, optimizando así la administración de recursos y la consistencia en el acceso a estos datos.&lt;/div&gt;" style="text;html=1;align=center;verticalAlign=middle;whiteSpace=wrap;rounded=0;strokeColor=none;fontSize=18;strokeWidth=0.5;fontFamily=Tahoma;" parent="WIyWlLk6GJQsqaUBKTNV-1" vertex="1">
          <mxGeometry x="-19" y="-544" width="538" height="392" as="geometry" />
        </mxCell>
        <mxCell id="wzgeaGv9EAP81gYeaEBi-83" value="GameManager" style="swimlane;fontStyle=1;align=center;verticalAlign=top;childLayout=stackLayout;horizontal=1;startSize=26;horizontalStack=0;resizeParent=1;resizeParentMax=0;resizeLast=0;collapsible=1;marginBottom=0;whiteSpace=wrap;html=1;fillColor=#FFCC99;strokeColor=#0e8088;" parent="WIyWlLk6GJQsqaUBKTNV-1" vertex="1">
          <mxGeometry x="-1040" y="-1023" width="200" height="110" as="geometry" />
        </mxCell>
        <mxCell id="wzgeaGv9EAP81gYeaEBi-84" value="+ level: int&lt;div&gt;+ score: int&lt;/div&gt;" style="text;strokeColor=none;fillColor=none;align=left;verticalAlign=top;spacingLeft=4;spacingRight=4;overflow=hidden;rotatable=0;points=[[0,0.5],[1,0.5]];portConstraint=eastwest;whiteSpace=wrap;html=1;" parent="wzgeaGv9EAP81gYeaEBi-83" vertex="1">
          <mxGeometry y="26" width="200" height="34" as="geometry" />
        </mxCell>
        <mxCell id="wzgeaGv9EAP81gYeaEBi-85" value="" style="line;strokeWidth=1;fillColor=none;align=left;verticalAlign=middle;spacingTop=-1;spacingLeft=3;spacingRight=3;rotatable=0;labelPosition=right;points=[];portConstraint=eastwest;strokeColor=inherit;" parent="wzgeaGv9EAP81gYeaEBi-83" vertex="1">
          <mxGeometry y="60" width="200" height="8" as="geometry" />
        </mxCell>
        <mxCell id="wzgeaGv9EAP81gYeaEBi-86" value="+ LevelComplete():&lt;br&gt;&lt;div&gt;+ LoadLevel():&lt;/div&gt;" style="text;strokeColor=none;fillColor=none;align=left;verticalAlign=top;spacingLeft=4;spacingRight=4;overflow=hidden;rotatable=0;points=[[0,0.5],[1,0.5]];portConstraint=eastwest;whiteSpace=wrap;html=1;" parent="wzgeaGv9EAP81gYeaEBi-83" vertex="1">
          <mxGeometry y="68" width="200" height="42" as="geometry" />
        </mxCell>
        <mxCell id="wzgeaGv9EAP81gYeaEBi-92" value="Manager Layer" style="html=1;whiteSpace=wrap;fillColor=#FFCC99;strokeColor=#0e8088;" parent="WIyWlLk6GJQsqaUBKTNV-1" vertex="1">
          <mxGeometry x="-835" y="-584" width="180" height="40" as="geometry" />
        </mxCell>
        <mxCell id="8cI2QEPQYE4IjMkozQ3j-15" style="edgeStyle=orthogonalEdgeStyle;rounded=0;orthogonalLoop=1;jettySize=auto;html=1;" edge="1" parent="WIyWlLk6GJQsqaUBKTNV-1" source="l5LiYJnCPGonqp5Cbsgp-26" target="Nn8wf7m07-L5-uIEtKWc-1">
          <mxGeometry relative="1" as="geometry" />
        </mxCell>
        <mxCell id="l5LiYJnCPGonqp5Cbsgp-26" value="&lt;font&gt;Meteorite&amp;nbsp;&lt;/font&gt;Spawner" style="swimlane;fontStyle=1;align=center;verticalAlign=top;childLayout=stackLayout;horizontal=1;startSize=26;horizontalStack=0;resizeParent=1;resizeParentMax=0;resizeLast=0;collapsible=1;marginBottom=0;whiteSpace=wrap;html=1;fillColor=#FFFF99;" parent="WIyWlLk6GJQsqaUBKTNV-1" vertex="1">
          <mxGeometry x="-1065" y="-270" width="170" height="60" as="geometry" />
        </mxCell>
        <mxCell id="l5LiYJnCPGonqp5Cbsgp-28" value="" style="line;strokeWidth=1;fillColor=none;align=left;verticalAlign=middle;spacingTop=-1;spacingLeft=3;spacingRight=3;rotatable=0;labelPosition=right;points=[];portConstraint=eastwest;strokeColor=inherit;" parent="l5LiYJnCPGonqp5Cbsgp-26" vertex="1">
          <mxGeometry y="26" width="170" height="8" as="geometry" />
        </mxCell>
        <mxCell id="l5LiYJnCPGonqp5Cbsgp-29" value="+SpawnMeteorite(): Meteorite" style="text;strokeColor=none;fillColor=none;align=left;verticalAlign=top;spacingLeft=4;spacingRight=4;overflow=hidden;rotatable=0;points=[[0,0.5],[1,0.5]];portConstraint=eastwest;whiteSpace=wrap;html=1;" parent="l5LiYJnCPGonqp5Cbsgp-26" vertex="1">
          <mxGeometry y="34" width="170" height="26" as="geometry" />
        </mxCell>
        <mxCell id="l5LiYJnCPGonqp5Cbsgp-46" style="edgeStyle=orthogonalEdgeStyle;rounded=0;orthogonalLoop=1;jettySize=auto;html=1;exitX=0;exitY=0.5;exitDx=0;exitDy=0;entryX=0.743;entryY=1.036;entryDx=0;entryDy=0;entryPerimeter=0;endArrow=none;endFill=0;startArrow=block;startFill=0;dashed=1;" parent="WIyWlLk6GJQsqaUBKTNV-1" source="wzgeaGv9EAP81gYeaEBi-3" target="Nn8wf7m07-L5-uIEtKWc-4" edge="1">
          <mxGeometry relative="1" as="geometry" />
        </mxCell>
        <mxCell id="8cI2QEPQYE4IjMkozQ3j-13" style="edgeStyle=orthogonalEdgeStyle;rounded=0;orthogonalLoop=1;jettySize=auto;html=1;endArrow=block;endFill=0;" edge="1" parent="WIyWlLk6GJQsqaUBKTNV-1" source="wzgeaGv9EAP81gYeaEBi-64" target="wzgeaGv9EAP81gYeaEBi-56">
          <mxGeometry relative="1" as="geometry" />
        </mxCell>
        <mxCell id="wzgeaGv9EAP81gYeaEBi-64" value="Points" style="swimlane;fontStyle=1;align=center;verticalAlign=top;childLayout=stackLayout;horizontal=1;startSize=26;horizontalStack=0;resizeParent=1;resizeParentMax=0;resizeLast=0;collapsible=1;marginBottom=0;whiteSpace=wrap;html=1;fillColor=#FFCC99;strokeColor=#0e8088;" parent="WIyWlLk6GJQsqaUBKTNV-1" vertex="1">
          <mxGeometry x="-940" y="-693" width="160" height="60" as="geometry" />
        </mxCell>
        <mxCell id="wzgeaGv9EAP81gYeaEBi-65" value="+ value: int" style="text;strokeColor=none;fillColor=none;align=left;verticalAlign=top;spacingLeft=4;spacingRight=4;overflow=hidden;rotatable=0;points=[[0,0.5],[1,0.5]];portConstraint=eastwest;whiteSpace=wrap;html=1;" parent="wzgeaGv9EAP81gYeaEBi-64" vertex="1">
          <mxGeometry y="26" width="160" height="26" as="geometry" />
        </mxCell>
        <mxCell id="wzgeaGv9EAP81gYeaEBi-66" value="" style="line;strokeWidth=1;fillColor=none;align=left;verticalAlign=middle;spacingTop=-1;spacingLeft=3;spacingRight=3;rotatable=0;labelPosition=right;points=[];portConstraint=eastwest;strokeColor=inherit;" parent="wzgeaGv9EAP81gYeaEBi-64" vertex="1">
          <mxGeometry y="52" width="160" height="8" as="geometry" />
        </mxCell>
        <mxCell id="wzgeaGv9EAP81gYeaEBi-60" value="Lifes" style="swimlane;fontStyle=1;align=center;verticalAlign=top;childLayout=stackLayout;horizontal=1;startSize=26;horizontalStack=0;resizeParent=1;resizeParentMax=0;resizeLast=0;collapsible=1;marginBottom=0;whiteSpace=wrap;html=1;fillColor=#FFCC99;strokeColor=#0e8088;" parent="WIyWlLk6GJQsqaUBKTNV-1" vertex="1">
          <mxGeometry x="-740" y="-693" width="160" height="60" as="geometry" />
        </mxCell>
        <mxCell id="wzgeaGv9EAP81gYeaEBi-61" value="+ value: int" style="text;strokeColor=none;fillColor=none;align=left;verticalAlign=top;spacingLeft=4;spacingRight=4;overflow=hidden;rotatable=0;points=[[0,0.5],[1,0.5]];portConstraint=eastwest;whiteSpace=wrap;html=1;" parent="wzgeaGv9EAP81gYeaEBi-60" vertex="1">
          <mxGeometry y="26" width="160" height="26" as="geometry" />
        </mxCell>
        <mxCell id="wzgeaGv9EAP81gYeaEBi-62" value="" style="line;strokeWidth=1;fillColor=none;align=left;verticalAlign=middle;spacingTop=-1;spacingLeft=3;spacingRight=3;rotatable=0;labelPosition=right;points=[];portConstraint=eastwest;strokeColor=inherit;" parent="wzgeaGv9EAP81gYeaEBi-60" vertex="1">
          <mxGeometry y="52" width="160" height="8" as="geometry" />
        </mxCell>
        <mxCell id="8cI2QEPQYE4IjMkozQ3j-5" style="edgeStyle=orthogonalEdgeStyle;rounded=0;orthogonalLoop=1;jettySize=auto;html=1;endArrow=block;endFill=0;" edge="1" parent="WIyWlLk6GJQsqaUBKTNV-1" source="wzgeaGv9EAP81gYeaEBi-60" target="wzgeaGv9EAP81gYeaEBi-56">
          <mxGeometry relative="1" as="geometry">
            <mxPoint x="-747.04" y="-760.4259999999999" as="targetPoint" />
            <Array as="points">
              <mxPoint x="-700" y="-710" />
              <mxPoint x="-747" y="-710" />
            </Array>
          </mxGeometry>
        </mxCell>
        <mxCell id="8cI2QEPQYE4IjMkozQ3j-7" value="Meteorite" style="swimlane;fontStyle=1;align=center;verticalAlign=top;childLayout=stackLayout;horizontal=1;startSize=26;horizontalStack=0;resizeParent=1;resizeParentMax=0;resizeLast=0;collapsible=1;marginBottom=0;whiteSpace=wrap;html=1;fillColor=#FFFF99;" vertex="1" parent="WIyWlLk6GJQsqaUBKTNV-1">
          <mxGeometry x="-745" y="-270" width="160" height="60" as="geometry" />
        </mxCell>
        <mxCell id="8cI2QEPQYE4IjMkozQ3j-8" value="+ speed: int" style="text;strokeColor=none;fillColor=none;align=left;verticalAlign=top;spacingLeft=4;spacingRight=4;overflow=hidden;rotatable=0;points=[[0,0.5],[1,0.5]];portConstraint=eastwest;whiteSpace=wrap;html=1;" vertex="1" parent="8cI2QEPQYE4IjMkozQ3j-7">
          <mxGeometry y="26" width="160" height="26" as="geometry" />
        </mxCell>
        <mxCell id="8cI2QEPQYE4IjMkozQ3j-9" value="" style="line;strokeWidth=1;fillColor=none;align=left;verticalAlign=middle;spacingTop=-1;spacingLeft=3;spacingRight=3;rotatable=0;labelPosition=right;points=[];portConstraint=eastwest;strokeColor=inherit;" vertex="1" parent="8cI2QEPQYE4IjMkozQ3j-7">
          <mxGeometry y="52" width="160" height="8" as="geometry" />
        </mxCell>
        <mxCell id="8cI2QEPQYE4IjMkozQ3j-12" style="edgeStyle=orthogonalEdgeStyle;rounded=0;orthogonalLoop=1;jettySize=auto;html=1;entryX=0.25;entryY=0.992;entryDx=0;entryDy=0;entryPerimeter=0;" edge="1" parent="WIyWlLk6GJQsqaUBKTNV-1" source="wzgeaGv9EAP81gYeaEBi-70" target="wzgeaGv9EAP81gYeaEBi-86">
          <mxGeometry relative="1" as="geometry" />
        </mxCell>
      </root>
    </mxGraphModel>
  </diagram>
</mxfile>
